# xmcd CD database file generated by Grip 3.2.0
# 
# Track frame offsets:
#       150
#       24977
#       43802
#       70415
#       95190
#       120047
#       140452
#       162367
#       166620
#       187490
# 
# Disc length: 2774 seconds
# 
# Revision: 2
# Processed by: cddbd v1.5.1PL2 Copyright (c) Steve Scherf et al.
# Submitted via: Grip 3.2.0
# 
DISCID=870ad40a
DTITLE=Tribus Futuras - Culturas Cosmicas
DYEAR=2000
DGENRE=Native American
TTITLE0=Sobre el Volcan (Above the Volcano)
TTITLE1=Eldorado
TTITLE2=Culturas Cosmicas (Cosmic Cultures)
TTITLE3=Encuentro en las Alturas (Gathering in the Heights)
TTITLE4=Bosques Eternos (Eternal Forest)
TTITLE5=Fluyendo Hacia el Amazonas (Flowing Toward the Amazon)
TTITLE6=Enlaces (Bonds)
TTITLE7=El Misico (The Musician)
TTITLE8=El Viaje (The Journey)
TTITLE9=Luna Llena (Full Moon)
EXTD=\nYEAR: 2000  ID3G:  64
EXTT0=
EXTT1=
EXTT2=
EXTT3=
EXTT4=
EXTT5=
EXTT6=
EXTT7=
EXTT8=
EXTT9=
PLAYORDER=
